<svg width="24" height="24" viewBox="0 0 24 24" fill="none" xmlns="http://www.w3.org/2000/svg">
<path d="M19.6862 3.36011H4.31375C4.06079 3.36011 3.8182 3.46059 3.63934 3.63946C3.46047 3.81832 3.35999 4.06091 3.35999 4.31387V19.6866C3.36005 19.9395 3.46056 20.182 3.63942 20.3608C3.81828 20.5397 4.06083 20.6401 4.31375 20.6401H12.5897V13.9484H10.3377V11.3406H12.5897V9.41723C12.5897 7.18523 13.9529 5.97011 15.9439 5.97011C16.8977 5.97011 17.7173 6.04091 17.9563 6.07283V8.40539L16.5753 8.40611C15.4925 8.40611 15.2829 8.92067 15.2829 9.67571V11.3408H17.8653L17.5291 13.9487H15.2829V20.6401H19.6865C19.9394 20.64 20.1819 20.5395 20.3607 20.3607C20.5395 20.1818 20.64 19.9393 20.64 19.6863V4.31387C20.64 4.06091 20.5395 3.81832 20.3606 3.63946C20.1818 3.46059 19.9392 3.36011 19.6862 3.36011Z" fill="white"/>
</svg>
