<svg width="48" height="48" viewBox="0 0 48 48" fill="none" xmlns="http://www.w3.org/2000/svg">
<g clip-path="url(#clip0_183_879)">
<path d="M47.42 44.58L35.5 32.66C38.3 29.22 40 24.8 40 20C40 8.98 31.02 0 20 0C8.98 0 0 8.98 0 20C0 31.02 8.98 40 20 40C24.8 40 29.22 38.3 32.66 35.5L44.58 47.42C44.98 47.8 45.48 48 46 48C46.52 48 47.02 47.8 47.42 47.42C48.2 46.64 48.2 45.36 47.42 44.58ZM20 36C11.86 36 5.12 29.88 4.12 22H10C10.62 22 11.22 21.7 11.6 21.2L15.52 15.96L20.16 26.78C20.46 27.46 21.08 27.92 21.82 28H22C22.66 28 23.3 27.66 23.66 27.1L27.08 22H30C31.1 22 32 21.1 32 20C32 18.9 31.1 18 30 18H26C25.34 18 24.7 18.34 24.34 18.9L22.38 21.82L17.84 11.22C17.7024 10.8969 17.4821 10.6158 17.2011 10.4051C16.9202 10.1945 16.5887 10.0616 16.24 10.02C15.52 9.92 14.82 10.22 14.4 10.8L9 18H4.12C5.12 10.12 11.86 4 20 4C28.82 4 36 11.18 36 20C36 28.82 28.82 36 20 36Z" fill="#23A6F0"/>
</g>
<defs>
<clipPath id="clip0_183_879">
<rect width="48" height="48" fill="white"/>
</clipPath>
</defs>
</svg>
