<svg width="48" height="48" viewBox="0 0 48 48" fill="none" xmlns="http://www.w3.org/2000/svg">
<path d="M39.0731 0H8.92688C3.99909 0.00571875 0.00571875 3.99909 0 8.92688V39.0731C0.00571875 44.0009 3.99909 47.9943 8.92688 48H39.0731C44.0009 47.9943 47.9943 44.0009 48 39.0731V8.92688C47.9943 3.99909 44.0009 0.00571875 39.0731 0ZM44.6864 8.92688V11.821H36.2921L30.0141 3.31359H39.0732C42.1718 3.31706 44.6829 5.82816 44.6864 8.92688ZM25.8958 3.31359L32.1739 11.821H22.1042L15.8261 3.31359H25.8958ZM3.31359 8.92688C3.31706 5.82825 5.82816 3.31716 8.92688 3.31359H11.708L17.986 11.821H3.31359V8.92688ZM39.0731 44.6864H8.92688C5.82825 44.6829 3.31716 42.1718 3.31359 39.0731V15.1347H44.6864V39.0731C44.6828 42.1717 42.1717 44.6828 39.0731 44.6864Z" fill="#23A6F0"/>
<path d="M32.8396 28.4756L19.7319 20.9079C18.9395 20.4504 17.9262 20.7219 17.4687 21.5144C17.3233 21.7663 17.2467 22.052 17.2467 22.3428V37.4783C17.2467 38.3933 17.9885 39.1352 18.9035 39.1352C19.1943 39.1352 19.48 39.0587 19.7319 38.9132L32.8396 31.3454C33.632 30.8879 33.9035 29.8746 33.446 29.0822C33.3006 28.8302 33.0915 28.6211 32.8396 28.4756ZM20.5603 34.6086V25.2124L28.6976 29.9104L20.5603 34.6086Z" fill="#23A6F0"/>
</svg>
