<svg width="48" height="48" viewBox="0 0 48 48" fill="none" xmlns="http://www.w3.org/2000/svg">
<g clip-path="url(#clip0_183_120)">
<path d="M24 48C17.5894 48 11.5624 45.5036 7.02938 40.9706C2.49638 36.4376 0 30.4106 0 24C0 17.5894 2.49647 11.5625 7.02938 7.02938C11.5623 2.49628 17.5894 0 24 0C30.4106 0 36.4376 2.49638 40.9706 7.02938C45.5036 11.5624 48 17.5894 48 24C48 30.4106 45.5035 36.4375 40.9706 40.9706C36.4377 45.5037 30.4106 48 24 48ZM24 3C12.4206 3 3 12.4206 3 24C3 35.5794 12.4206 45 24 45C35.5794 45 45 35.5794 45 24C45 12.4206 35.5794 3 24 3Z" fill="#23A6F0"/>
<path d="M24 22.5C21.9323 22.5 20.25 20.8177 20.25 18.75C20.25 16.6823 21.9323 15 24 15C26.0677 15 27.75 16.6823 27.75 18.75C27.75 19.5784 28.4215 20.25 29.25 20.25C30.0785 20.25 30.75 19.5784 30.75 18.75C30.75 15.5437 28.5021 12.8542 25.5 12.1701V10.5C25.5 9.67162 24.8285 9 24 9C23.1715 9 22.5 9.67162 22.5 10.5V12.1701C19.4979 12.8542 17.25 15.5437 17.25 18.75C17.25 22.472 20.278 25.5 24 25.5C26.0677 25.5 27.75 27.1823 27.75 29.25C27.75 31.3177 26.0677 33 24 33C21.9323 33 20.25 31.3177 20.25 29.25C20.25 28.4216 19.5785 27.75 18.75 27.75C17.9215 27.75 17.25 28.4216 17.25 29.25C17.25 32.4563 19.4979 35.1458 22.5 35.8299V37.5C22.5 38.3284 23.1715 39 24 39C24.8285 39 25.5 38.3284 25.5 37.5V35.8299C28.5021 35.1458 30.75 32.4563 30.75 29.25C30.75 25.528 27.722 22.5 24 22.5Z" fill="#23A6F0"/>
</g>
<defs>
<clipPath id="clip0_183_120">
<rect width="48" height="48" fill="white"/>
</clipPath>
</defs>
</svg>
