<svg width="24" height="24" viewBox="0 0 24 24" fill="none" xmlns="http://www.w3.org/2000/svg">
<path d="M19.3601 3.36011H4.63559C3.93143 3.36011 3.35999 3.91811 3.35999 4.60523V19.3933C3.35999 20.0814 3.93143 20.6401 4.63559 20.6401H19.3601C20.0647 20.6401 20.64 20.0814 20.64 19.3933V4.60523C20.64 3.91811 20.0647 3.36011 19.3601 3.36011ZM8.48495 18.0851H5.92079V9.83891H8.48495V18.0851ZM7.20287 8.71139C7.00769 8.71139 6.81443 8.67293 6.63413 8.59821C6.45383 8.52349 6.29001 8.41398 6.15205 8.27593C6.01408 8.13787 5.90468 7.97399 5.83007 7.79364C5.75547 7.61328 5.71714 7.42 5.71727 7.22483C5.71727 6.83085 5.87377 6.45302 6.15235 6.17443C6.43093 5.89585 6.80877 5.73935 7.20275 5.73935C7.59672 5.73935 7.97456 5.89585 8.25314 6.17443C8.53172 6.45302 8.68823 6.83085 8.68823 7.22483C8.68823 7.61888 8.53177 7.99681 8.25325 8.27556C7.97472 8.55431 7.59692 8.71107 7.20287 8.71139ZM18.084 18.0851H15.5239V14.0751C15.5239 13.1185 15.5052 11.8885 14.1917 11.8885C12.8577 11.8885 12.6545 12.9303 12.6545 14.0058V18.0853H10.0925V9.83891H12.5513V10.965H12.5863C12.9285 10.317 13.7647 9.63323 15.0117 9.63323C17.6052 9.63323 18.0842 11.3406 18.0842 13.5618V18.0851H18.084Z" fill="white"/>
</svg>
