<svg width="18" height="17" viewBox="0 0 18 17" fill="none" xmlns="http://www.w3.org/2000/svg">
<path d="M8.99976 1.0752C9.06487 1.0752 9.13459 1.0878 9.21069 1.12012L9.28979 1.15918C9.34363 1.18991 9.38925 1.23238 9.42749 1.2959L9.46362 1.36719L9.4646 1.36914L11.3396 5.81934L11.4568 6.09668L11.7566 6.12305L16.5847 6.5459C16.7495 6.57018 16.8312 6.61672 16.8708 6.65137C16.9345 6.70704 16.9892 6.78419 17.03 6.89648C17.0642 6.99053 17.0711 7.0822 17.0496 7.18262C17.0336 7.25671 16.9921 7.33762 16.8923 7.42676L13.2234 10.5967L12.9949 10.7939L13.0632 11.0889L14.1628 15.8135C14.1911 15.9365 14.1761 16.0145 14.1482 16.0732C14.0977 16.1794 14.0305 16.2633 13.9441 16.3301C13.8747 16.3837 13.7923 16.4172 13.6824 16.4268C13.6018 16.4337 13.5183 16.4176 13.4197 16.3545L13.1501 16.7754L13.4197 16.3535L13.408 16.3467L9.25854 13.8467L8.99976 13.6914L8.74194 13.8467L4.59253 16.3467L4.85034 16.7754L4.59155 16.3467L4.58179 16.3535C4.48254 16.4167 4.39807 16.4336 4.31616 16.4268C4.20735 16.4176 4.12632 16.3837 4.05737 16.3301C3.97001 16.2621 3.90178 16.1789 3.85132 16.0732C3.82387 16.0157 3.80896 15.9373 3.83765 15.8125L3.83667 15.8115L4.93726 11.0889L5.00562 10.7939L4.7771 10.5967L1.10229 7.42188C1.00756 7.3345 0.967651 7.25479 0.951904 7.18164C0.935574 7.1056 0.934872 7.03486 0.949951 6.96484L0.970459 6.89551C1.01038 6.78502 1.06494 6.70802 1.12964 6.65137C1.17001 6.61606 1.25128 6.56952 1.41382 6.5459L6.2439 6.12305L6.5437 6.09668L6.66089 5.81934L8.53589 1.36914L8.53687 1.36719C8.56988 1.28809 8.61034 1.23371 8.65894 1.19434L8.71069 1.15918C8.81852 1.0977 8.91296 1.07525 8.99976 1.0752Z" stroke="#737373"/>
</svg>
