<svg width="12" height="10" viewBox="0 0 12 10" fill="none" xmlns="http://www.w3.org/2000/svg">
<path d="M0.749928 0.916483H11.2499C11.3562 0.916816 11.4604 0.946136 11.5513 1.00129C11.6422 1.05644 11.7163 1.13533 11.7657 1.22947C11.8151 1.32361 11.8379 1.42944 11.8316 1.53556C11.8253 1.64169 11.7902 1.74408 11.73 1.83173L6.48001 9.41507C6.26243 9.72948 5.73859 9.72948 5.52043 9.41507L0.270428 1.83173C0.209659 1.74427 0.174023 1.64182 0.167391 1.53552C0.160759 1.42922 0.183385 1.32314 0.232811 1.2288C0.282237 1.13445 0.356572 1.05546 0.44774 1.0004C0.538908 0.945338 0.643423 0.916315 0.749928 0.916483ZM5.99993 8.05823L10.1369 2.08315H1.86293L5.99993 8.05823Z" fill="#23A6F0"/>
</svg>
