<svg width="24" height="24" viewBox="0 0 24 24" fill="none" xmlns="http://www.w3.org/2000/svg">
<path d="M10.8456 16.8939C10.6786 17.13 10.5204 17.2464 10.3692 17.2464C10.2684 17.2464 10.2111 17.1874 10.1928 17.0703C10.1856 17.046 10.1856 16.9541 10.1856 16.7775V13.7151H9.4325V17.004C9.4325 17.298 9.45746 17.4963 9.49898 17.6223C9.5741 17.833 9.74162 17.9316 9.9845 17.9316C10.2615 17.9316 10.5461 17.7644 10.8454 17.4207V17.8745H11.5997V13.7153H10.8456V16.8939Z" fill="white"/>
<path d="M6.69531 13.0782H7.58187V17.8746H8.41995V13.0782H9.32283V12.2925H6.69531V13.0782Z" fill="white"/>
<path d="M11.8275 9.44182C12.073 9.44182 12.1906 9.24742 12.1906 8.85837V7.09005C12.1906 6.70149 12.073 6.50781 11.8275 6.50781C11.5817 6.50781 11.4639 6.70149 11.4639 7.09005V8.85837C11.4641 9.24717 11.5817 9.44182 11.8275 9.44182Z" fill="white"/>
<path d="M13.7841 13.6646C13.5072 13.6646 13.2489 13.8162 13.0058 14.1158V12.2925H12.252V17.8746H13.0058V17.471C13.2573 17.7827 13.5163 17.9317 13.7841 17.9317C14.0844 17.9317 14.286 17.7738 14.3868 17.4645C14.4369 17.2881 14.4626 17.0111 14.4626 16.6264V14.9702C14.4626 14.5766 14.4369 14.3015 14.3868 14.1342C14.2857 13.8225 14.0844 13.6646 13.7841 13.6646ZM13.709 16.6854C13.709 17.061 13.5984 17.2463 13.3812 17.2463C13.2573 17.2463 13.1316 17.1873 13.0056 17.0613V14.5259C13.1316 14.4018 13.2571 14.3428 13.3812 14.3428C13.5986 14.3428 13.709 14.5353 13.709 14.9104V16.6854Z" fill="white"/>
<path d="M16.1844 13.6646C15.7999 13.6646 15.4994 13.8064 15.282 14.0913C15.1217 14.3013 15.049 14.6262 15.049 15.0705V16.5278C15.049 16.9694 15.131 17.2979 15.2911 17.5055C15.5088 17.7894 15.8088 17.9315 16.2033 17.9315C16.5969 17.9315 16.9058 17.7825 17.1146 17.481C17.2067 17.3456 17.2668 17.1911 17.2905 17.0291C17.2973 16.9535 17.3066 16.786 17.3066 16.5436V16.4332H16.5374C16.5374 16.7356 16.5281 16.9029 16.5211 16.9439C16.4781 17.1453 16.3697 17.2461 16.1844 17.2461C15.9257 17.2461 15.7999 17.0541 15.7999 16.6691V15.9318H17.3069V15.0702C17.3069 14.6258 17.2313 14.301 17.0736 14.091C16.8626 13.8062 16.5626 13.6646 16.1844 13.6646ZM16.5533 15.3047H15.7999V14.92C15.7999 14.5355 15.9257 14.343 16.1777 14.343C16.427 14.343 16.5533 14.5355 16.5533 14.92V15.3047Z" fill="white"/>
<path d="M18.96 3.36011H5.03999C4.11599 3.36011 3.35999 4.11611 3.35999 5.04011V18.9601C3.35999 19.8841 4.11599 20.6401 5.03999 20.6401H18.96C19.884 20.6401 20.64 19.8841 20.64 18.9601V5.04011C20.64 4.11611 19.884 3.36011 18.96 3.36011ZM13.5792 5.87291H14.3383V8.96699C14.3383 9.14603 14.3383 9.23891 14.3477 9.26339C14.3645 9.38147 14.424 9.44171 14.5262 9.44171C14.6784 9.44171 14.8385 9.32363 15.0072 9.08507V5.87291H15.7689V10.0753H15.0072V9.61691C14.7041 9.96467 14.4149 10.1336 14.1372 10.1336C13.8919 10.1336 13.7227 10.034 13.6466 9.82091C13.6046 9.69395 13.5792 9.49259 13.5792 9.19595V5.87291ZM10.7023 7.24283C10.7023 6.79379 10.7789 6.46523 10.9409 6.25283C11.1516 5.96579 11.4482 5.82203 11.8274 5.82203C12.209 5.82203 12.5052 5.96579 12.7161 6.25283C12.8755 6.46523 12.9525 6.79379 12.9525 7.24283V8.71523C12.9525 9.16163 12.8757 9.49283 12.7161 9.70379C12.5052 9.99011 12.2093 10.1339 11.8274 10.1339C11.448 10.1339 11.1513 9.99011 10.9409 9.70379C10.7789 9.49283 10.7023 9.16163 10.7023 8.71523V7.24283ZM8.66567 4.43579L9.26543 6.65027L9.84119 4.43579H10.6951L9.67943 7.79147V10.0753H8.83463V7.79147C8.75831 7.38635 8.58935 6.79355 8.31863 6.00707C8.14055 5.48387 7.95503 4.95827 7.77719 4.43579H8.66567ZM18.0175 18.1244C17.8653 18.7875 17.3225 19.2767 16.6697 19.3494C15.1231 19.5222 13.5581 19.5231 12 19.5222C10.4417 19.5231 8.87663 19.5222 7.33031 19.3494C6.67727 19.2764 6.13535 18.7873 5.98295 18.1244C5.76575 17.1798 5.76575 16.1487 5.76575 15.1767C5.76575 14.2038 5.76815 13.1735 5.98559 12.2286C6.13775 11.5657 6.67991 11.0768 7.33295 11.0039C8.87927 10.8306 10.4443 10.8301 12.0026 10.8306C13.5607 10.8301 15.1257 10.8306 16.6723 11.0039C17.3249 11.0768 17.8675 11.5657 18.0199 12.2286C18.2371 13.1737 18.2359 14.2038 18.2359 15.1767C18.2361 16.1487 18.2349 17.1798 18.0175 18.1244Z" fill="white"/>
</svg>
